<svg xmlns="http://www.w3.org/2000/svg" viewBox="0 0 1200 482" width="1200" height="482" role="img" aria-label="Contribution calendar: 992 contributions, peak 62 in one day. 39 weeks before the account existed are compressed out of the axis.">
<rect width="1200" height="482" fill="#0b1014"/>
<rect x="20.5" y="20.5" width="1159.0" height="441.0" fill="none" stroke="#15231a"/>
<text x="56" y="52" font-family="ui-monospace, SFMono-Regular, 'SF Mono', Menlo, Consolas, 'Liberation Mono', monospace" font-size="11" fill="#00ff4c" letter-spacing="1.4">hexdump contributions.cal</text>
<text x="1144" y="52" font-family="ui-monospace, SFMono-Regular, 'SF Mono', Menlo, Consolas, 'Liberation Mono', monospace" font-size="11" fill="#7f8d84" letter-spacing="0.6" text-anchor="end">one byte per day · value = commits · peak 0x3e</text>
<rect x="108.0" y="104" width="372" height="290" fill="#10161b"/>
<text x="294.0" y="245.0" font-family="ui-monospace, SFMono-Regular, 'SF Mono', Menlo, Consolas, 'Liberation Mono', monospace" font-size="14" fill="#aab2aa" text-anchor="middle">39 weeks elided</text>
<text x="294.0" y="269.0" font-family="ui-monospace, SFMono-Regular, 'SF Mono', Menlo, Consolas, 'Liberation Mono', monospace" font-size="11.5" fill="#7f8d84" text-anchor="middle">the account did not exist yet</text>
<text x="108.0" y="92" font-family="ui-monospace, SFMono-Regular, 'SF Mono', Menlo, Consolas, 'Liberation Mono', monospace" font-size="10" fill="#7f8d84" letter-spacing="1">Sep 2025</text>
<path d="M485.0 400.0 L495.0 98.0" stroke="#7f8d84" stroke-width="1.5" fill="none"/>
<path d="M494.0 400.0 L504.0 98.0" stroke="#7f8d84" stroke-width="1.5" fill="none"/>
<text x="56" y="129.0" font-family="ui-monospace, SFMono-Regular, 'SF Mono', Menlo, Consolas, 'Liberation Mono', monospace" font-size="11" fill="#7f8d84">Sun</text>
<text x="56" y="171.0" font-family="ui-monospace, SFMono-Regular, 'SF Mono', Menlo, Consolas, 'Liberation Mono', monospace" font-size="11" fill="#7f8d84">Mon</text>
<text x="56" y="213.0" font-family="ui-monospace, SFMono-Regular, 'SF Mono', Menlo, Consolas, 'Liberation Mono', monospace" font-size="11" fill="#7f8d84">Tue</text>
<text x="56" y="255.0" font-family="ui-monospace, SFMono-Regular, 'SF Mono', Menlo, Consolas, 'Liberation Mono', monospace" font-size="11" fill="#7f8d84">Wed</text>
<text x="56" y="297.0" font-family="ui-monospace, SFMono-Regular, 'SF Mono', Menlo, Consolas, 'Liberation Mono', monospace" font-size="11" fill="#7f8d84">Thu</text>
<text x="56" y="339.0" font-family="ui-monospace, SFMono-Regular, 'SF Mono', Menlo, Consolas, 'Liberation Mono', monospace" font-size="11" fill="#7f8d84">Fri</text>
<text x="56" y="381.0" font-family="ui-monospace, SFMono-Regular, 'SF Mono', Menlo, Consolas, 'Liberation Mono', monospace" font-size="11" fill="#7f8d84">Sat</text>
<text x="827.0" y="92" font-family="ui-monospace, SFMono-Regular, 'SF Mono', Menlo, Consolas, 'Liberation Mono', monospace" font-size="10" fill="#7f8d84" letter-spacing="1">Aug</text>
<text x="1053.4" y="92" font-family="ui-monospace, SFMono-Regular, 'SF Mono', Menlo, Consolas, 'Liberation Mono', monospace" font-size="10" fill="#7f8d84" letter-spacing="1">Sep</text>
<rect x="510.40" y="104.4" width="40.49" height="37" fill="none" stroke="#15231a" stroke-width="0.75"/>
<rect x="510.40" y="146.4" width="40.49" height="37" fill="none" stroke="#15231a" stroke-width="0.75"/>
<rect x="510.40" y="188.4" width="40.49" height="37" fill="none" stroke="#15231a" stroke-width="0.75"/>
<rect x="510.40" y="230.4" width="40.49" height="37" fill="none" stroke="#15231a" stroke-width="0.75"/>
<rect x="510.40" y="272.4" width="40.49" height="37" fill="none" stroke="#15231a" stroke-width="0.75"/>
<rect x="510.40" y="314.4" width="40.49" height="37" fill="none" stroke="#15231a" stroke-width="0.75"/>
<rect x="510.00" y="356.0" width="41.29" height="38" fill="#163823"/>
<text x="530.64" y="380.0" font-family="ui-monospace, SFMono-Regular, 'SF Mono', Menlo, Consolas, 'Liberation Mono', monospace" font-size="15" fill="#f0f0e8" text-anchor="middle">07</text>
<rect x="555.29" y="104.0" width="41.29" height="38" fill="#163823"/>
<text x="575.93" y="128.0" font-family="ui-monospace, SFMono-Regular, 'SF Mono', Menlo, Consolas, 'Liberation Mono', monospace" font-size="15" fill="#f0f0e8" text-anchor="middle">02</text>
<rect x="555.29" y="146.0" width="41.29" height="38" fill="#141b1c"/>
<rect x="555.29" y="188.0" width="41.29" height="38" fill="#163823"/>
<text x="575.93" y="212.0" font-family="ui-monospace, SFMono-Regular, 'SF Mono', Menlo, Consolas, 'Liberation Mono', monospace" font-size="15" fill="#f0f0e8" text-anchor="middle">02</text>
<rect x="555.29" y="230.0" width="41.29" height="38" fill="#163823"/>
<text x="575.93" y="254.0" font-family="ui-monospace, SFMono-Regular, 'SF Mono', Menlo, Consolas, 'Liberation Mono', monospace" font-size="15" fill="#f0f0e8" text-anchor="middle">06</text>
<rect x="555.29" y="272.0" width="41.29" height="38" fill="#141b1c"/>
<rect x="555.29" y="314.0" width="41.29" height="38" fill="#163823"/>
<text x="575.93" y="338.0" font-family="ui-monospace, SFMono-Regular, 'SF Mono', Menlo, Consolas, 'Liberation Mono', monospace" font-size="15" fill="#f0f0e8" text-anchor="middle">02</text>
<rect x="555.29" y="356.0" width="41.29" height="38" fill="#163823"/>
<text x="575.93" y="380.0" font-family="ui-monospace, SFMono-Regular, 'SF Mono', Menlo, Consolas, 'Liberation Mono', monospace" font-size="15" fill="#f0f0e8" text-anchor="middle">02</text>
<rect x="600.57" y="104.0" width="41.29" height="38" fill="#141b1c"/>
<rect x="600.57" y="146.0" width="41.29" height="38" fill="#163823"/>
<text x="621.21" y="170.0" font-family="ui-monospace, SFMono-Regular, 'SF Mono', Menlo, Consolas, 'Liberation Mono', monospace" font-size="15" fill="#f0f0e8" text-anchor="middle">02</text>
<rect x="600.57" y="188.0" width="41.29" height="38" fill="#163823"/>
<text x="621.21" y="212.0" font-family="ui-monospace, SFMono-Regular, 'SF Mono', Menlo, Consolas, 'Liberation Mono', monospace" font-size="15" fill="#f0f0e8" text-anchor="middle">04</text>
<rect x="600.57" y="230.0" width="41.29" height="38" fill="#141b1c"/>
<rect x="600.57" y="272.0" width="41.29" height="38" fill="#163823"/>
<text x="621.21" y="296.0" font-family="ui-monospace, SFMono-Regular, 'SF Mono', Menlo, Consolas, 'Liberation Mono', monospace" font-size="15" fill="#f0f0e8" text-anchor="middle">04</text>
<rect x="600.57" y="314.0" width="41.29" height="38" fill="#163823"/>
<text x="621.21" y="338.0" font-family="ui-monospace, SFMono-Regular, 'SF Mono', Menlo, Consolas, 'Liberation Mono', monospace" font-size="15" fill="#f0f0e8" text-anchor="middle">04</text>
<rect x="600.57" y="356.0" width="41.29" height="38" fill="#163823"/>
<text x="621.21" y="380.0" font-family="ui-monospace, SFMono-Regular, 'SF Mono', Menlo, Consolas, 'Liberation Mono', monospace" font-size="15" fill="#f0f0e8" text-anchor="middle">02</text>
<rect x="645.86" y="104.0" width="41.29" height="38" fill="#163823"/>
<text x="666.50" y="128.0" font-family="ui-monospace, SFMono-Regular, 'SF Mono', Menlo, Consolas, 'Liberation Mono', monospace" font-size="15" fill="#f0f0e8" text-anchor="middle">04</text>
<rect x="645.86" y="146.0" width="41.29" height="38" fill="#163823"/>
<text x="666.50" y="170.0" font-family="ui-monospace, SFMono-Regular, 'SF Mono', Menlo, Consolas, 'Liberation Mono', monospace" font-size="15" fill="#f0f0e8" text-anchor="middle">01</text>
<rect x="645.86" y="188.0" width="41.29" height="38" fill="#163823"/>
<text x="666.50" y="212.0" font-family="ui-monospace, SFMono-Regular, 'SF Mono', Menlo, Consolas, 'Liberation Mono', monospace" font-size="15" fill="#f0f0e8" text-anchor="middle">08</text>
<rect x="645.86" y="230.0" width="41.29" height="38" fill="#141b1c"/>
<rect x="645.86" y="272.0" width="41.29" height="38" fill="#163823"/>
<text x="666.50" y="296.0" font-family="ui-monospace, SFMono-Regular, 'SF Mono', Menlo, Consolas, 'Liberation Mono', monospace" font-size="15" fill="#f0f0e8" text-anchor="middle">02</text>
<rect x="645.86" y="314.0" width="41.29" height="38" fill="#163823"/>
<text x="666.50" y="338.0" font-family="ui-monospace, SFMono-Regular, 'SF Mono', Menlo, Consolas, 'Liberation Mono', monospace" font-size="15" fill="#f0f0e8" text-anchor="middle">01</text>
<rect x="645.86" y="356.0" width="41.29" height="38" fill="#163823"/>
<text x="666.50" y="380.0" font-family="ui-monospace, SFMono-Regular, 'SF Mono', Menlo, Consolas, 'Liberation Mono', monospace" font-size="15" fill="#f0f0e8" text-anchor="middle">04</text>
<rect x="691.14" y="104.0" width="41.29" height="38" fill="#163823"/>
<text x="711.79" y="128.0" font-family="ui-monospace, SFMono-Regular, 'SF Mono', Menlo, Consolas, 'Liberation Mono', monospace" font-size="15" fill="#f0f0e8" text-anchor="middle">02</text>
<rect x="691.14" y="146.0" width="41.29" height="38" fill="#141b1c"/>
<rect x="691.14" y="188.0" width="41.29" height="38" fill="#163823"/>
<text x="711.79" y="212.0" font-family="ui-monospace, SFMono-Regular, 'SF Mono', Menlo, Consolas, 'Liberation Mono', monospace" font-size="15" fill="#f0f0e8" text-anchor="middle">06</text>
<rect x="691.14" y="230.0" width="41.29" height="38" fill="#163823"/>
<text x="711.79" y="254.0" font-family="ui-monospace, SFMono-Regular, 'SF Mono', Menlo, Consolas, 'Liberation Mono', monospace" font-size="15" fill="#f0f0e8" text-anchor="middle">06</text>
<rect x="691.14" y="272.0" width="41.29" height="38" fill="#163823"/>
<text x="711.79" y="296.0" font-family="ui-monospace, SFMono-Regular, 'SF Mono', Menlo, Consolas, 'Liberation Mono', monospace" font-size="15" fill="#f0f0e8" text-anchor="middle">02</text>
<rect x="691.14" y="314.0" width="41.29" height="38" fill="#141b1c"/>
<rect x="691.14" y="356.0" width="41.29" height="38" fill="#163823"/>
<text x="711.79" y="380.0" font-family="ui-monospace, SFMono-Regular, 'SF Mono', Menlo, Consolas, 'Liberation Mono', monospace" font-size="15" fill="#f0f0e8" text-anchor="middle">02</text>
<rect x="736.43" y="104.0" width="41.29" height="38" fill="#163823"/>
<text x="757.07" y="128.0" font-family="ui-monospace, SFMono-Regular, 'SF Mono', Menlo, Consolas, 'Liberation Mono', monospace" font-size="15" fill="#f0f0e8" text-anchor="middle">09</text>
<rect x="736.43" y="146.0" width="41.29" height="38" fill="#163823"/>
<text x="757.07" y="170.0" font-family="ui-monospace, SFMono-Regular, 'SF Mono', Menlo, Consolas, 'Liberation Mono', monospace" font-size="15" fill="#f0f0e8" text-anchor="middle">05</text>
<rect x="736.43" y="188.0" width="41.29" height="38" fill="#163823"/>
<text x="757.07" y="212.0" font-family="ui-monospace, SFMono-Regular, 'SF Mono', Menlo, Consolas, 'Liberation Mono', monospace" font-size="15" fill="#f0f0e8" text-anchor="middle">04</text>
<rect x="736.43" y="230.0" width="41.29" height="38" fill="#141b1c"/>
<rect x="736.43" y="272.0" width="41.29" height="38" fill="#163823"/>
<text x="757.07" y="296.0" font-family="ui-monospace, SFMono-Regular, 'SF Mono', Menlo, Consolas, 'Liberation Mono', monospace" font-size="15" fill="#f0f0e8" text-anchor="middle">02</text>
<rect x="736.43" y="314.0" width="41.29" height="38" fill="#163823"/>
<text x="757.07" y="338.0" font-family="ui-monospace, SFMono-Regular, 'SF Mono', Menlo, Consolas, 'Liberation Mono', monospace" font-size="15" fill="#f0f0e8" text-anchor="middle">09</text>
<rect x="736.43" y="356.0" width="41.29" height="38" fill="#163823"/>
<text x="757.07" y="380.0" font-family="ui-monospace, SFMono-Regular, 'SF Mono', Menlo, Consolas, 'Liberation Mono', monospace" font-size="15" fill="#f0f0e8" text-anchor="middle">02</text>
<rect x="781.71" y="104.0" width="41.29" height="38" fill="#141b1c"/>
<rect x="781.71" y="146.0" width="41.29" height="38" fill="#163823"/>
<text x="802.36" y="170.0" font-family="ui-monospace, SFMono-Regular, 'SF Mono', Menlo, Consolas, 'Liberation Mono', monospace" font-size="15" fill="#f0f0e8" text-anchor="middle">01</text>
<rect x="781.71" y="188.0" width="41.29" height="38" fill="#163823"/>
<text x="802.36" y="212.0" font-family="ui-monospace, SFMono-Regular, 'SF Mono', Menlo, Consolas, 'Liberation Mono', monospace" font-size="15" fill="#f0f0e8" text-anchor="middle">01</text>
<rect x="781.71" y="230.0" width="41.29" height="38" fill="#163823"/>
<text x="802.36" y="254.0" font-family="ui-monospace, SFMono-Regular, 'SF Mono', Menlo, Consolas, 'Liberation Mono', monospace" font-size="15" fill="#f0f0e8" text-anchor="middle">03</text>
<rect x="781.71" y="272.0" width="41.29" height="38" fill="#163823"/>
<text x="802.36" y="296.0" font-family="ui-monospace, SFMono-Regular, 'SF Mono', Menlo, Consolas, 'Liberation Mono', monospace" font-size="15" fill="#f0f0e8" text-anchor="middle">02</text>
<rect x="781.71" y="314.0" width="41.29" height="38" fill="#163823"/>
<text x="802.36" y="338.0" font-family="ui-monospace, SFMono-Regular, 'SF Mono', Menlo, Consolas, 'Liberation Mono', monospace" font-size="15" fill="#f0f0e8" text-anchor="middle">02</text>
<rect x="781.71" y="356.0" width="41.29" height="38" fill="#141b1c"/>
<rect x="827.00" y="104.0" width="41.29" height="38" fill="#1f6f35"/>
<text x="847.64" y="128.0" font-family="ui-monospace, SFMono-Regular, 'SF Mono', Menlo, Consolas, 'Liberation Mono', monospace" font-size="15" fill="#f0f0e8" text-anchor="middle">16</text>
<rect x="827.00" y="146.0" width="41.29" height="38" fill="#163823"/>
<text x="847.64" y="170.0" font-family="ui-monospace, SFMono-Regular, 'SF Mono', Menlo, Consolas, 'Liberation Mono', monospace" font-size="15" fill="#f0f0e8" text-anchor="middle">08</text>
<rect x="827.00" y="188.0" width="41.29" height="38" fill="#163823"/>
<text x="847.64" y="212.0" font-family="ui-monospace, SFMono-Regular, 'SF Mono', Menlo, Consolas, 'Liberation Mono', monospace" font-size="15" fill="#f0f0e8" text-anchor="middle">04</text>
<rect x="827.00" y="230.0" width="41.29" height="38" fill="#163823"/>
<text x="847.64" y="254.0" font-family="ui-monospace, SFMono-Regular, 'SF Mono', Menlo, Consolas, 'Liberation Mono', monospace" font-size="15" fill="#f0f0e8" text-anchor="middle">03</text>
<rect x="827.00" y="272.0" width="41.29" height="38" fill="#141b1c"/>
<rect x="827.00" y="314.0" width="41.29" height="38" fill="#163823"/>
<text x="847.64" y="338.0" font-family="ui-monospace, SFMono-Regular, 'SF Mono', Menlo, Consolas, 'Liberation Mono', monospace" font-size="15" fill="#f0f0e8" text-anchor="middle">06</text>
<rect x="827.00" y="356.0" width="41.29" height="38" fill="#163823"/>
<text x="847.64" y="380.0" font-family="ui-monospace, SFMono-Regular, 'SF Mono', Menlo, Consolas, 'Liberation Mono', monospace" font-size="15" fill="#f0f0e8" text-anchor="middle">05</text>
<rect x="872.29" y="104.0" width="41.29" height="38" fill="#163823"/>
<text x="892.93" y="128.0" font-family="ui-monospace, SFMono-Regular, 'SF Mono', Menlo, Consolas, 'Liberation Mono', monospace" font-size="15" fill="#f0f0e8" text-anchor="middle">15</text>
<rect x="872.29" y="146.0" width="41.29" height="38" fill="#00ff4c"/>
<text x="892.93" y="170.0" font-family="ui-monospace, SFMono-Regular, 'SF Mono', Menlo, Consolas, 'Liberation Mono', monospace" font-size="15" fill="#0b1014" text-anchor="middle">3e</text>
<rect x="872.29" y="188.0" width="41.29" height="38" fill="#163823"/>
<text x="892.93" y="212.0" font-family="ui-monospace, SFMono-Regular, 'SF Mono', Menlo, Consolas, 'Liberation Mono', monospace" font-size="15" fill="#f0f0e8" text-anchor="middle">02</text>
<rect x="872.29" y="230.0" width="41.29" height="38" fill="#163823"/>
<text x="892.93" y="254.0" font-family="ui-monospace, SFMono-Regular, 'SF Mono', Menlo, Consolas, 'Liberation Mono', monospace" font-size="15" fill="#f0f0e8" text-anchor="middle">04</text>
<rect x="872.29" y="272.0" width="41.29" height="38" fill="#141b1c"/>
<rect x="872.29" y="314.0" width="41.29" height="38" fill="#141b1c"/>
<rect x="872.29" y="356.0" width="41.29" height="38" fill="#141b1c"/>
<rect x="917.57" y="104.0" width="41.29" height="38" fill="#141b1c"/>
<rect x="917.57" y="146.0" width="41.29" height="38" fill="#163823"/>
<text x="938.21" y="170.0" font-family="ui-monospace, SFMono-Regular, 'SF Mono', Menlo, Consolas, 'Liberation Mono', monospace" font-size="15" fill="#f0f0e8" text-anchor="middle">02</text>
<rect x="917.57" y="188.0" width="41.29" height="38" fill="#141b1c"/>
<rect x="917.57" y="230.0" width="41.29" height="38" fill="#141b1c"/>
<rect x="917.57" y="272.0" width="41.29" height="38" fill="#163823"/>
<text x="938.21" y="296.0" font-family="ui-monospace, SFMono-Regular, 'SF Mono', Menlo, Consolas, 'Liberation Mono', monospace" font-size="15" fill="#f0f0e8" text-anchor="middle">10</text>
<rect x="917.57" y="314.0" width="41.29" height="38" fill="#141b1c"/>
<rect x="917.57" y="356.0" width="41.29" height="38" fill="#163823"/>
<text x="938.21" y="380.0" font-family="ui-monospace, SFMono-Regular, 'SF Mono', Menlo, Consolas, 'Liberation Mono', monospace" font-size="15" fill="#f0f0e8" text-anchor="middle">02</text>
<rect x="962.86" y="104.0" width="41.29" height="38" fill="#141b1c"/>
<rect x="962.86" y="146.0" width="41.29" height="38" fill="#141b1c"/>
<rect x="962.86" y="188.0" width="41.29" height="38" fill="#141b1c"/>
<rect x="962.86" y="230.0" width="41.29" height="38" fill="#163823"/>
<text x="983.50" y="254.0" font-family="ui-monospace, SFMono-Regular, 'SF Mono', Menlo, Consolas, 'Liberation Mono', monospace" font-size="15" fill="#f0f0e8" text-anchor="middle">0d</text>
<rect x="962.86" y="272.0" width="41.29" height="38" fill="#1f6f35"/>
<text x="983.50" y="296.0" font-family="ui-monospace, SFMono-Regular, 'SF Mono', Menlo, Consolas, 'Liberation Mono', monospace" font-size="15" fill="#f0f0e8" text-anchor="middle">20</text>
<rect x="962.86" y="314.0" width="41.29" height="38" fill="#163823"/>
<text x="983.50" y="338.0" font-family="ui-monospace, SFMono-Regular, 'SF Mono', Menlo, Consolas, 'Liberation Mono', monospace" font-size="15" fill="#f0f0e8" text-anchor="middle">0b</text>
<rect x="962.86" y="356.0" width="41.29" height="38" fill="#163823"/>
<text x="983.50" y="380.0" font-family="ui-monospace, SFMono-Regular, 'SF Mono', Menlo, Consolas, 'Liberation Mono', monospace" font-size="15" fill="#f0f0e8" text-anchor="middle">0a</text>
<rect x="1008.14" y="104.0" width="41.29" height="38" fill="#163823"/>
<text x="1028.79" y="128.0" font-family="ui-monospace, SFMono-Regular, 'SF Mono', Menlo, Consolas, 'Liberation Mono', monospace" font-size="15" fill="#f0f0e8" text-anchor="middle">05</text>
<rect x="1008.14" y="146.0" width="41.29" height="38" fill="#163823"/>
<text x="1028.79" y="170.0" font-family="ui-monospace, SFMono-Regular, 'SF Mono', Menlo, Consolas, 'Liberation Mono', monospace" font-size="15" fill="#f0f0e8" text-anchor="middle">01</text>
<rect x="1008.14" y="188.0" width="41.29" height="38" fill="#163823"/>
<text x="1028.79" y="212.0" font-family="ui-monospace, SFMono-Regular, 'SF Mono', Menlo, Consolas, 'Liberation Mono', monospace" font-size="15" fill="#f0f0e8" text-anchor="middle">03</text>
<rect x="1008.14" y="230.0" width="41.29" height="38" fill="#141b1c"/>
<rect x="1008.14" y="272.0" width="41.29" height="38" fill="#163823"/>
<text x="1028.79" y="296.0" font-family="ui-monospace, SFMono-Regular, 'SF Mono', Menlo, Consolas, 'Liberation Mono', monospace" font-size="15" fill="#f0f0e8" text-anchor="middle">05</text>
<rect x="1008.14" y="314.0" width="41.29" height="38" fill="#163823"/>
<text x="1028.79" y="338.0" font-family="ui-monospace, SFMono-Regular, 'SF Mono', Menlo, Consolas, 'Liberation Mono', monospace" font-size="15" fill="#f0f0e8" text-anchor="middle">12</text>
<rect x="1008.14" y="356.0" width="41.29" height="38" fill="#163823"/>
<text x="1028.79" y="380.0" font-family="ui-monospace, SFMono-Regular, 'SF Mono', Menlo, Consolas, 'Liberation Mono', monospace" font-size="15" fill="#f0f0e8" text-anchor="middle">0c</text>
<rect x="1053.43" y="104.0" width="41.29" height="38" fill="#163823"/>
<text x="1074.07" y="128.0" font-family="ui-monospace, SFMono-Regular, 'SF Mono', Menlo, Consolas, 'Liberation Mono', monospace" font-size="15" fill="#f0f0e8" text-anchor="middle">06</text>
<rect x="1053.43" y="146.0" width="41.29" height="38" fill="#1f6f35"/>
<text x="1074.07" y="170.0" font-family="ui-monospace, SFMono-Regular, 'SF Mono', Menlo, Consolas, 'Liberation Mono', monospace" font-size="15" fill="#f0f0e8" text-anchor="middle">25</text>
<rect x="1053.43" y="188.0" width="41.29" height="38" fill="#163823"/>
<text x="1074.07" y="212.0" font-family="ui-monospace, SFMono-Regular, 'SF Mono', Menlo, Consolas, 'Liberation Mono', monospace" font-size="15" fill="#f0f0e8" text-anchor="middle">14</text>
<rect x="1053.43" y="230.0" width="41.29" height="38" fill="#163823"/>
<text x="1074.07" y="254.0" font-family="ui-monospace, SFMono-Regular, 'SF Mono', Menlo, Consolas, 'Liberation Mono', monospace" font-size="15" fill="#f0f0e8" text-anchor="middle">01</text>
<rect x="1053.43" y="272.0" width="41.29" height="38" fill="#163823"/>
<text x="1074.07" y="296.0" font-family="ui-monospace, SFMono-Regular, 'SF Mono', Menlo, Consolas, 'Liberation Mono', monospace" font-size="15" fill="#f0f0e8" text-anchor="middle">06</text>
<rect x="1053.43" y="314.0" width="41.29" height="38" fill="#163823"/>
<text x="1074.07" y="338.0" font-family="ui-monospace, SFMono-Regular, 'SF Mono', Menlo, Consolas, 'Liberation Mono', monospace" font-size="15" fill="#f0f0e8" text-anchor="middle">03</text>
<rect x="1053.43" y="356.0" width="41.29" height="38" fill="#163823"/>
<text x="1074.07" y="380.0" font-family="ui-monospace, SFMono-Regular, 'SF Mono', Menlo, Consolas, 'Liberation Mono', monospace" font-size="15" fill="#f0f0e8" text-anchor="middle">01</text>
<rect x="1098.71" y="104.0" width="41.29" height="38" fill="#141b1c"/>
<rect x="1098.71" y="146.0" width="41.29" height="38" fill="#141b1c"/>
<rect x="1098.71" y="188.0" width="41.29" height="38" fill="#141b1c"/>
<rect x="1098.71" y="230.0" width="41.29" height="38" fill="#163823"/>
<text x="1119.36" y="254.0" font-family="ui-monospace, SFMono-Regular, 'SF Mono', Menlo, Consolas, 'Liberation Mono', monospace" font-size="15" fill="#f0f0e8" text-anchor="middle">0a</text>
<rect x="1098.71" y="272.0" width="41.29" height="38" fill="#163823"/>
<text x="1119.36" y="296.0" font-family="ui-monospace, SFMono-Regular, 'SF Mono', Menlo, Consolas, 'Liberation Mono', monospace" font-size="15" fill="#f0f0e8" text-anchor="middle">02</text>
<rect x="1098.71" y="314.0" width="41.29" height="38" fill="#141b1c"/>
<rect x="506.0" y="100" width="1.5" height="298" fill="#00ff4c"/>
<text x="513.0" y="92" font-family="ui-monospace, SFMono-Regular, 'SF Mono', Menlo, Consolas, 'Liberation Mono', monospace" font-size="10" fill="#00ff4c" letter-spacing="0.8">account opens · 20 Jun 2026</text>
<text x="56" y="438" font-family="ui-monospace, SFMono-Regular, 'SF Mono', Menlo, Consolas, 'Liberation Mono', monospace" font-size="10" fill="#7f8d84">0x00</text>
<rect x="96" y="426" width="22" height="16" fill="#141b1c"/>
<rect x="122" y="426" width="22" height="16" fill="#163823"/>
<rect x="148" y="426" width="22" height="16" fill="#1f6f35"/>
<rect x="174" y="426" width="22" height="16" fill="#29b84c"/>
<rect x="200" y="426" width="22" height="16" fill="#00ff4c"/>
<text x="230" y="438" font-family="ui-monospace, SFMono-Regular, 'SF Mono', Menlo, Consolas, 'Liberation Mono', monospace" font-size="10" fill="#7f8d84">0x3e</text>
<text x="1144" y="438" font-family="ui-monospace, SFMono-Regular, 'SF Mono', Menlo, Consolas, 'Liberation Mono', monospace" font-size="10" fill="#7f8d84" text-anchor="end">a hairline cell is a day with no byte · a blank cell is a day with no commit</text>
</svg>
