<svg xmlns="http://www.w3.org/2000/svg" viewBox="0 0 1200 440" width="1200" height="440" role="img" aria-label="Kayra, @Kayra-ML. Python · Machine Learning · Data Science. Find the story hidden in the data.">
<rect width="1200" height="440" fill="#0d1117"/>
<rect x="20.5" y="20.5" width="1159.0" height="399.0" fill="none" stroke="#21262d"/>

<!-- ruler top -->
<rect x="56.00" y="63.0" width="1" height="11" fill="#00FF41" opacity="0.5"/>
<rect x="73.50" y="69.0" width="1" height="5" fill="#21262d"/>
<rect x="91.00" y="69.0" width="1" height="5" fill="#21262d"/>
<rect x="108.50" y="69.0" width="1" height="5" fill="#21262d"/>
<rect x="126.00" y="69.0" width="1" height="5" fill="#21262d"/>
<rect x="143.50" y="69.0" width="1" height="5" fill="#21262d"/>
<rect x="161.00" y="69.0" width="1" height="5" fill="#21262d"/>
<rect x="178.50" y="69.0" width="1" height="5" fill="#21262d"/>
<rect x="196.00" y="63.0" width="1" height="11" fill="#00FF41" opacity="0.5"/>
<rect x="213.50" y="69.0" width="1" height="5" fill="#21262d"/>
<rect x="231.00" y="69.0" width="1" height="5" fill="#21262d"/>
<rect x="248.50" y="69.0" width="1" height="5" fill="#21262d"/>
<rect x="266.00" y="69.0" width="1" height="5" fill="#21262d"/>
<rect x="283.50" y="69.0" width="1" height="5" fill="#21262d"/>
<rect x="301.00" y="69.0" width="1" height="5" fill="#21262d"/>
<rect x="318.50" y="69.0" width="1" height="5" fill="#21262d"/>
<rect x="336.00" y="63.0" width="1" height="11" fill="#00FF41" opacity="0.5"/>
<rect x="353.50" y="69.0" width="1" height="5" fill="#21262d"/>
<rect x="371.00" y="69.0" width="1" height="5" fill="#21262d"/>
<rect x="388.50" y="69.0" width="1" height="5" fill="#21262d"/>
<rect x="406.00" y="69.0" width="1" height="5" fill="#21262d"/>
<rect x="423.50" y="69.0" width="1" height="5" fill="#21262d"/>
<rect x="441.00" y="69.0" width="1" height="5" fill="#21262d"/>
<rect x="458.50" y="69.0" width="1" height="5" fill="#21262d"/>
<rect x="476.00" y="63.0" width="1" height="11" fill="#00FF41" opacity="0.5"/>
<rect x="493.50" y="69.0" width="1" height="5" fill="#21262d"/>
<rect x="511.00" y="69.0" width="1" height="5" fill="#21262d"/>
<rect x="528.50" y="69.0" width="1" height="5" fill="#21262d"/>
<rect x="546.00" y="69.0" width="1" height="5" fill="#21262d"/>
<rect x="563.50" y="69.0" width="1" height="5" fill="#21262d"/>
<rect x="581.00" y="69.0" width="1" height="5" fill="#21262d"/>
<rect x="598.50" y="69.0" width="1" height="5" fill="#21262d"/>
<rect x="616.00" y="63.0" width="1" height="11" fill="#00FF41" opacity="0.5"/>
<text x="60.00"  y="59.0" font-family="ui-monospace,SFMono-Regular,'SF Mono',Menlo,Consolas,'Liberation Mono',monospace" font-size="10" fill="#00FF41" opacity="0.5">0</text>
<text x="200.00" y="59.0" font-family="ui-monospace,SFMono-Regular,'SF Mono',Menlo,Consolas,'Liberation Mono',monospace" font-size="10" fill="#00FF41" opacity="0.5">8</text>
<text x="340.00" y="59.0" font-family="ui-monospace,SFMono-Regular,'SF Mono',Menlo,Consolas,'Liberation Mono',monospace" font-size="10" fill="#00FF41" opacity="0.5">16</text>
<text x="480.00" y="59.0" font-family="ui-monospace,SFMono-Regular,'SF Mono',Menlo,Consolas,'Liberation Mono',monospace" font-size="10" fill="#00FF41" opacity="0.5">24</text>
<text x="614.00" y="59.0" font-family="ui-monospace,SFMono-Regular,'SF Mono',Menlo,Consolas,'Liberation Mono',monospace" font-size="10" fill="#00FF41" opacity="0.5" text-anchor="end">31</text>
<rect x="56.0" y="74.0" width="560.0" height="1" fill="#21262d"/>

<!-- KAYRA wordmark -->
<g transform="translate(56.00,118.00) scale(0.79)" fill="none" stroke="#00FF41" stroke-width="20" stroke-linecap="butt" stroke-linejoin="miter" stroke-miterlimit="6" opacity="0.9">
  <g transform="translate(0,0)"><path d="M10,10 V130"/><path d="M88,10 L10,73"/><path d="M44,52 L90,130"/></g>
  <g transform="translate(122,0)"><path d="M8,130 L46,10 H54 L92,130"/><path d="M27,94 H73"/></g>
  <g transform="translate(244,0)"><path d="M10,10 L50,66 L90,10"/><path d="M50,66 V130"/></g>
  <g transform="translate(366,0)"><path d="M10,130 V10 H50 A30,30 0 0 1 50,70 H10"/><path d="M50,70 L90,130"/></g>
  <g transform="translate(488,0)"><path d="M8,130 L46,10 H54 L92,130"/><path d="M27,94 H73"/></g>
</g>

<text x="56" y="262" font-family="ui-monospace,SFMono-Regular,'SF Mono',Menlo,Consolas,'Liberation Mono',monospace" font-size="12.5" fill="#00FF41" opacity="0.6" letter-spacing="0.6">@Kayra-ML · Türkiye · since 2026</text>
<text x="56" y="312" font-family="ui-monospace,SFMono-Regular,'SF Mono',Menlo,Consolas,'Liberation Mono',monospace" font-size="21" fill="#e6edf3" letter-spacing="-0.3">Find the story hidden</text>
<text x="56" y="342" font-family="ui-monospace,SFMono-Regular,'SF Mono',Menlo,Consolas,'Liberation Mono',monospace" font-size="21" fill="#e6edf3" letter-spacing="-0.3">in the data.</text>
<rect x="56.0" y="372.0" width="560.0" height="1" fill="#21262d"/>
<text x="56" y="400" font-family="ui-monospace,SFMono-Regular,'SF Mono',Menlo,Consolas,'Liberation Mono',monospace" font-size="13.5" fill="#8b949e">Python · ML · NumPy · Pandas · Scikit-Learn · SQL</text>

<!-- RIGHT PANEL: struct activity table (KaramelliS style) -->
<rect x="636" y="44" width="544" height="352" fill="#0d1117"/>

<!-- struct header -->
<text x="656" y="70" font-family="ui-monospace,SFMono-Regular,'SF Mono',Menlo,Consolas,'Liberation Mono',monospace" font-size="11" fill="#00FF41" letter-spacing="1.4">struct activity</text>
<text x="1164" y="70" font-family="ui-monospace,SFMono-Regular,'SF Mono',Menlo,Consolas,'Liberation Mono',monospace" font-size="11" fill="#8b949e" letter-spacing="0.6" text-anchor="end">sizeof = 8 bytes</text>

<!-- column headers -->
<g font-family="ui-monospace,SFMono-Regular,'SF Mono',Menlo,Consolas,'Liberation Mono',monospace" font-size="10" fill="#8b949e" letter-spacing="1.3">
  <text x="656"  y="98">FIELD</text>
  <text x="836"  y="98">OFFSET</text>
  <text x="916"  y="98">TYPE</text>
  <text x="996"  y="98">VALUE</text>
</g>
<rect x="656" y="106" width="488" height="1" fill="#21262d"/>

<!-- row 1: focus -->
<text x="656"  y="134" font-family="ui-monospace,SFMono-Regular,'SF Mono',Menlo,Consolas,'Liberation Mono',monospace" font-size="13" fill="#8b949e">focus</text>
<text x="836"  y="134" font-family="ui-monospace,SFMono-Regular,'SF Mono',Menlo,Consolas,'Liberation Mono',monospace" font-size="12" fill="#8b949e">0x0000</text>
<text x="916"  y="134" font-family="ui-monospace,SFMono-Regular,'SF Mono',Menlo,Consolas,'Liberation Mono',monospace" font-size="12" fill="#58a6ff">str</text>
<text x="996"  y="136" font-family="ui-monospace,SFMono-Regular,'SF Mono',Menlo,Consolas,'Liberation Mono',monospace" font-size="17" font-weight="600" fill="#e6edf3">Machine Learning</text>
<rect x="656" y="146" width="488" height="1" fill="#21262d"/>

<!-- row 2: lang -->
<text x="656"  y="172" font-family="ui-monospace,SFMono-Regular,'SF Mono',Menlo,Consolas,'Liberation Mono',monospace" font-size="13" fill="#8b949e">lang[0]</text>
<text x="836"  y="172" font-family="ui-monospace,SFMono-Regular,'SF Mono',Menlo,Consolas,'Liberation Mono',monospace" font-size="12" fill="#8b949e">0x0001</text>
<text x="916"  y="172" font-family="ui-monospace,SFMono-Regular,'SF Mono',Menlo,Consolas,'Liberation Mono',monospace" font-size="12" fill="#58a6ff">str</text>
<text x="996"  y="174" font-family="ui-monospace,SFMono-Regular,'SF Mono',Menlo,Consolas,'Liberation Mono',monospace" font-size="17" font-weight="600" fill="#00FF41">Python</text>
<rect x="656" y="182" width="488" height="1" fill="#21262d"/>

<!-- row 3: lang[1] -->
<text x="656"  y="208" font-family="ui-monospace,SFMono-Regular,'SF Mono',Menlo,Consolas,'Liberation Mono',monospace" font-size="13" fill="#8b949e">lang[1]</text>
<text x="836"  y="208" font-family="ui-monospace,SFMono-Regular,'SF Mono',Menlo,Consolas,'Liberation Mono',monospace" font-size="12" fill="#8b949e">0x0002</text>
<text x="916"  y="208" font-family="ui-monospace,SFMono-Regular,'SF Mono',Menlo,Consolas,'Liberation Mono',monospace" font-size="12" fill="#58a6ff">str</text>
<text x="996"  y="210" font-family="ui-monospace,SFMono-Regular,'SF Mono',Menlo,Consolas,'Liberation Mono',monospace" font-size="17" font-weight="600" fill="#e6edf3">TypeScript</text>
<rect x="656" y="218" width="488" height="1" fill="#21262d"/>

<!-- row 4: next -->
<text x="656"  y="244" font-family="ui-monospace,SFMono-Regular,'SF Mono',Menlo,Consolas,'Liberation Mono',monospace" font-size="13" fill="#8b949e">next</text>
<text x="836"  y="244" font-family="ui-monospace,SFMono-Regular,'SF Mono',Menlo,Consolas,'Liberation Mono',monospace" font-size="12" fill="#8b949e">0x0003</text>
<text x="916"  y="244" font-family="ui-monospace,SFMono-Regular,'SF Mono',Menlo,Consolas,'Liberation Mono',monospace" font-size="12" fill="#58a6ff">str</text>
<text x="996"  y="246" font-family="ui-monospace,SFMono-Regular,'SF Mono',Menlo,Consolas,'Liberation Mono',monospace" font-size="17" font-weight="600" fill="#00FF41">PyTorch · Deep Learning</text>
<rect x="656" y="254" width="488" height="1" fill="#21262d"/>

<!-- row 5: repos -->
<text x="656"  y="280" font-family="ui-monospace,SFMono-Regular,'SF Mono',Menlo,Consolas,'Liberation Mono',monospace" font-size="13" fill="#8b949e">repositories</text>
<text x="836"  y="280" font-family="ui-monospace,SFMono-Regular,'SF Mono',Menlo,Consolas,'Liberation Mono',monospace" font-size="12" fill="#8b949e">0x0004</text>
<text x="916"  y="280" font-family="ui-monospace,SFMono-Regular,'SF Mono',Menlo,Consolas,'Liberation Mono',monospace" font-size="12" fill="#58a6ff">u8</text>
<text x="996"  y="282" font-family="ui-monospace,SFMono-Regular,'SF Mono',Menlo,Consolas,'Liberation Mono',monospace" font-size="17" font-weight="600" fill="#e6edf3" style="font-variant-numeric:tabular-nums">8</text>
<rect x="656" y="290" width="488" height="1" fill="#21262d"/>

<!-- row 6: opened -->
<text x="656"  y="316" font-family="ui-monospace,SFMono-Regular,'SF Mono',Menlo,Consolas,'Liberation Mono',monospace" font-size="13" fill="#8b949e">opened</text>
<text x="836"  y="316" font-family="ui-monospace,SFMono-Regular,'SF Mono',Menlo,Consolas,'Liberation Mono',monospace" font-size="12" fill="#8b949e">0x0005</text>
<text x="916"  y="316" font-family="ui-monospace,SFMono-Regular,'SF Mono',Menlo,Consolas,'Liberation Mono',monospace" font-size="12" fill="#58a6ff">date</text>
<text x="996"  y="318" font-family="ui-monospace,SFMono-Regular,'SF Mono',Menlo,Consolas,'Liberation Mono',monospace" font-size="17" font-weight="600" fill="#e6edf3" style="font-variant-numeric:tabular-nums">2026-07-20</text>
<rect x="656" y="326" width="488" height="1" fill="#21262d"/>

<!-- row 7: motto -->
<text x="656"  y="352" font-family="ui-monospace,SFMono-Regular,'SF Mono',Menlo,Consolas,'Liberation Mono',monospace" font-size="13" fill="#8b949e">motto</text>
<text x="836"  y="352" font-family="ui-monospace,SFMono-Regular,'SF Mono',Menlo,Consolas,'Liberation Mono',monospace" font-size="12" fill="#8b949e">0x0006</text>
<text x="916"  y="352" font-family="ui-monospace,SFMono-Regular,'SF Mono',Menlo,Consolas,'Liberation Mono',monospace" font-size="12" fill="#58a6ff">str</text>
<text x="996"  y="354" font-family="ui-monospace,SFMono-Regular,'SF Mono',Menlo,Consolas,'Liberation Mono',monospace" font-size="13" fill="#8b949e">Find the story hidden in the data</text>
<rect x="656" y="362" width="488" height="1" fill="#21262d"/>

<!-- closing brace -->
<text x="656" y="388" font-family="ui-monospace,SFMono-Regular,'SF Mono',Menlo,Consolas,'Liberation Mono',monospace" font-size="11" fill="#00FF41" opacity="0.5">} // Kayra-ML</text>

</svg>
