<svg xmlns="http://www.w3.org/2000/svg" viewBox="0 0 1200 436" width="1200" height="436" role="img" aria-label="Language map: 22.7 MB of source across 17 languages">
<rect width="1200" height="436" fill="#0b1014"/>
<rect x="20.5" y="20.5" width="1159.0" height="395.0" fill="none" stroke="#15231a"/>
<text x="56" y="52" font-family="ui-monospace, SFMono-Regular, 'SF Mono', Menlo, Consolas, 'Liberation Mono', monospace" font-size="11" fill="#00ff4c" letter-spacing="1.4">language map</text>
<text x="1144" y="52" font-family="ui-monospace, SFMono-Regular, 'SF Mono', Menlo, Consolas, 'Liberation Mono', monospace" font-size="11" fill="#7f8d84" letter-spacing="0.6" text-anchor="end">22.7 MB of source · 17 languages</text>
<text x="56" y="96" font-family="ui-monospace, SFMono-Regular, 'SF Mono', Menlo, Consolas, 'Liberation Mono', monospace" font-size="10.5" fill="#7f8d84">0x000000</text>
<text x="1144" y="96" font-family="ui-monospace, SFMono-Regular, 'SF Mono', Menlo, Consolas, 'Liberation Mono', monospace" font-size="10.5" fill="#7f8d84" text-anchor="end">0x16AA7C6</text>
<rect x="56.00" y="108" width="917.57" height="56" fill="#00ff4c"/>
<text x="68.00" y="131" font-family="ui-monospace, SFMono-Regular, 'SF Mono', Menlo, Consolas, 'Liberation Mono', monospace" font-size="12" fill="#0b1014" letter-spacing="0.4">HTML</text>
<text x="68.00" y="149" font-family="ui-monospace, SFMono-Regular, 'SF Mono', Menlo, Consolas, 'Liberation Mono', monospace" font-size="11" fill="#0b1014" opacity="0.78">84.3%</text>
<rect x="973.57" y="108" width="66.54" height="56" fill="#36e65d"/>
<rect x="973.57" y="108" width="1" height="56" fill="#0b1014"/>
<rect x="1040.11" y="108" width="50.97" height="56" fill="#52c86c"/>
<rect x="1040.11" y="108" width="1" height="56" fill="#0b1014"/>
<rect x="1091.09" y="108" width="28.22" height="56" fill="#66ab76"/>
<rect x="1091.09" y="108" width="1" height="56" fill="#0b1014"/>
<rect x="1119.30" y="108" width="14.95" height="56" fill="#728d78"/>
<rect x="1119.30" y="108" width="1" height="56" fill="#0b1014"/>
<rect x="1134.25" y="108" width="3.72" height="56" fill="#65736b"/>
<rect x="1134.25" y="108" width="1" height="56" fill="#0b1014"/>
<rect x="1137.97" y="108" width="3.30" height="56" fill="#38483f"/>
<rect x="1137.97" y="108" width="1" height="56" fill="#0b1014"/>
<rect x="1141.27" y="108" width="1.14" height="56" fill="#38483f"/>
<rect x="1141.27" y="108" width="1" height="56" fill="#0b1014"/>
<rect x="1142.41" y="108" width="0.84" height="56" fill="#38483f"/>
<rect x="1142.41" y="108" width="1" height="56" fill="#0b1014"/>
<rect x="1143.24" y="108" width="0.51" height="56" fill="#38483f"/>
<rect x="1143.24" y="108" width="1" height="56" fill="#0b1014"/>
<rect x="1143.75" y="108" width="0.09" height="56" fill="#38483f"/>
<rect x="1143.75" y="108" width="1" height="56" fill="#0b1014"/>
<rect x="1143.84" y="108" width="0.07" height="56" fill="#38483f"/>
<rect x="1143.84" y="108" width="1" height="56" fill="#0b1014"/>
<rect x="1143.91" y="108" width="0.04" height="56" fill="#38483f"/>
<rect x="1143.91" y="108" width="1" height="56" fill="#0b1014"/>
<rect x="1143.95" y="108" width="0.03" height="56" fill="#38483f"/>
<rect x="1143.95" y="108" width="1" height="56" fill="#0b1014"/>
<rect x="1143.97" y="108" width="0.02" height="56" fill="#38483f"/>
<rect x="1143.97" y="108" width="1" height="56" fill="#0b1014"/>
<rect x="1143.99" y="108" width="0.01" height="56" fill="#38483f"/>
<rect x="1143.99" y="108" width="1" height="56" fill="#0b1014"/>
<rect x="1144.00" y="108" width="0.00" height="56" fill="#38483f"/>
<rect x="1144.00" y="108" width="1" height="56" fill="#0b1014"/>
<g font-family="ui-monospace, SFMono-Regular, 'SF Mono', Menlo, Consolas, 'Liberation Mono', monospace" font-size="10" fill="#7f8d84" letter-spacing="1.3">
<text x="56" y="208">LANGUAGE</text>
<text x="256" y="208">START</text>
<text x="386" y="208">SIZE</text>
<text x="516" y="208">BYTES</text>
<text x="646" y="208">SHARE</text>
</g>
<rect x="56.0" y="218.0" width="1088.0" height="1" fill="#1c2b23"/>
<rect x="56" y="237" width="10" height="10" fill="#00ff4c"/>
<text x="76" y="246" font-family="ui-monospace, SFMono-Regular, 'SF Mono', Menlo, Consolas, 'Liberation Mono', monospace" font-size="12.5" fill="#aab2aa">HTML</text>
<text x="256" y="246" font-family="ui-monospace, SFMono-Regular, 'SF Mono', Menlo, Consolas, 'Liberation Mono', monospace" font-size="11.5" fill="#7f8d84">0x000000</text>
<text x="386" y="246" font-family="ui-monospace, SFMono-Regular, 'SF Mono', Menlo, Consolas, 'Liberation Mono', monospace" font-size="11.5" fill="#f0f0e8">19.1 MB</text>
<text x="516" y="246" font-family="ui-monospace, SFMono-Regular, 'SF Mono', Menlo, Consolas, 'Liberation Mono', monospace" font-size="11.5" fill="#7f8d84" style="font-variant-numeric:tabular-nums">20043947</text>
<text x="646" y="246" font-family="ui-monospace, SFMono-Regular, 'SF Mono', Menlo, Consolas, 'Liberation Mono', monospace" font-size="11.5" fill="#aab2aa">84.3%</text>
<rect x="56" y="265" width="10" height="10" fill="#36e65d"/>
<text x="76" y="274" font-family="ui-monospace, SFMono-Regular, 'SF Mono', Menlo, Consolas, 'Liberation Mono', monospace" font-size="12.5" fill="#aab2aa">JavaScript</text>
<text x="256" y="274" font-family="ui-monospace, SFMono-Regular, 'SF Mono', Menlo, Consolas, 'Liberation Mono', monospace" font-size="11.5" fill="#7f8d84">0x131D8AB</text>
<text x="386" y="274" font-family="ui-monospace, SFMono-Regular, 'SF Mono', Menlo, Consolas, 'Liberation Mono', monospace" font-size="11.5" fill="#f0f0e8">1.4 MB</text>
<text x="516" y="274" font-family="ui-monospace, SFMono-Regular, 'SF Mono', Menlo, Consolas, 'Liberation Mono', monospace" font-size="11.5" fill="#7f8d84" style="font-variant-numeric:tabular-nums">1453627</text>
<text x="646" y="274" font-family="ui-monospace, SFMono-Regular, 'SF Mono', Menlo, Consolas, 'Liberation Mono', monospace" font-size="11.5" fill="#aab2aa">6.1%</text>
<rect x="56" y="293" width="10" height="10" fill="#52c86c"/>
<text x="76" y="302" font-family="ui-monospace, SFMono-Regular, 'SF Mono', Menlo, Consolas, 'Liberation Mono', monospace" font-size="12.5" fill="#aab2aa">TypeScript</text>
<text x="256" y="302" font-family="ui-monospace, SFMono-Regular, 'SF Mono', Menlo, Consolas, 'Liberation Mono', monospace" font-size="11.5" fill="#7f8d84">0x14806E6</text>
<text x="386" y="302" font-family="ui-monospace, SFMono-Regular, 'SF Mono', Menlo, Consolas, 'Liberation Mono', monospace" font-size="11.5" fill="#f0f0e8">1.1 MB</text>
<text x="516" y="302" font-family="ui-monospace, SFMono-Regular, 'SF Mono', Menlo, Consolas, 'Liberation Mono', monospace" font-size="11.5" fill="#7f8d84" style="font-variant-numeric:tabular-nums">1113524</text>
<text x="646" y="302" font-family="ui-monospace, SFMono-Regular, 'SF Mono', Menlo, Consolas, 'Liberation Mono', monospace" font-size="11.5" fill="#aab2aa">4.7%</text>
<rect x="56" y="321" width="10" height="10" fill="#66ab76"/>
<text x="76" y="330" font-family="ui-monospace, SFMono-Regular, 'SF Mono', Menlo, Consolas, 'Liberation Mono', monospace" font-size="12.5" fill="#aab2aa">Go</text>
<text x="256" y="330" font-family="ui-monospace, SFMono-Regular, 'SF Mono', Menlo, Consolas, 'Liberation Mono', monospace" font-size="11.5" fill="#7f8d84">0x159049A</text>
<text x="386" y="330" font-family="ui-monospace, SFMono-Regular, 'SF Mono', Menlo, Consolas, 'Liberation Mono', monospace" font-size="11.5" fill="#f0f0e8">602 KB</text>
<text x="516" y="330" font-family="ui-monospace, SFMono-Regular, 'SF Mono', Menlo, Consolas, 'Liberation Mono', monospace" font-size="11.5" fill="#7f8d84" style="font-variant-numeric:tabular-nums">616368</text>
<text x="646" y="330" font-family="ui-monospace, SFMono-Regular, 'SF Mono', Menlo, Consolas, 'Liberation Mono', monospace" font-size="11.5" fill="#aab2aa">2.6%</text>
<rect x="56" y="349" width="10" height="10" fill="#728d78"/>
<text x="76" y="358" font-family="ui-monospace, SFMono-Regular, 'SF Mono', Menlo, Consolas, 'Liberation Mono', monospace" font-size="12.5" fill="#aab2aa">Python</text>
<text x="256" y="358" font-family="ui-monospace, SFMono-Regular, 'SF Mono', Menlo, Consolas, 'Liberation Mono', monospace" font-size="11.5" fill="#7f8d84">0x1626C4A</text>
<text x="386" y="358" font-family="ui-monospace, SFMono-Regular, 'SF Mono', Menlo, Consolas, 'Liberation Mono', monospace" font-size="11.5" fill="#f0f0e8">319 KB</text>
<text x="516" y="358" font-family="ui-monospace, SFMono-Regular, 'SF Mono', Menlo, Consolas, 'Liberation Mono', monospace" font-size="11.5" fill="#7f8d84" style="font-variant-numeric:tabular-nums">326627</text>
<text x="646" y="358" font-family="ui-monospace, SFMono-Regular, 'SF Mono', Menlo, Consolas, 'Liberation Mono', monospace" font-size="11.5" fill="#aab2aa">1.4%</text>
<rect x="56" y="377" width="10" height="10" fill="#65736b"/>
<text x="76" y="386" font-family="ui-monospace, SFMono-Regular, 'SF Mono', Menlo, Consolas, 'Liberation Mono', monospace" font-size="12.5" fill="#aab2aa">CSS</text>
<text x="256" y="386" font-family="ui-monospace, SFMono-Regular, 'SF Mono', Menlo, Consolas, 'Liberation Mono', monospace" font-size="11.5" fill="#7f8d84">0x167682D</text>
<text x="386" y="386" font-family="ui-monospace, SFMono-Regular, 'SF Mono', Menlo, Consolas, 'Liberation Mono', monospace" font-size="11.5" fill="#f0f0e8">79 KB</text>
<text x="516" y="386" font-family="ui-monospace, SFMono-Regular, 'SF Mono', Menlo, Consolas, 'Liberation Mono', monospace" font-size="11.5" fill="#7f8d84" style="font-variant-numeric:tabular-nums">81207</text>
<text x="646" y="386" font-family="ui-monospace, SFMono-Regular, 'SF Mono', Menlo, Consolas, 'Liberation Mono', monospace" font-size="11.5" fill="#aab2aa">0.3%</text>
<text x="56" y="406" font-family="ui-monospace, SFMono-Regular, 'SF Mono', Menlo, Consolas, 'Liberation Mono', monospace" font-size="10.5" fill="#7f8d84">+ Dart 70 KB, C++ 24 KB, CMake 18 KB, Shell 11 KB, Swift 2 KB, Dockerfile 2 KB, C 883 B, Makefile 584 B, PowerShell 415 B, Kotlin 126 B, Procfile 23 B</text>
</svg>
